<svg width="50" height="50" viewBox="0 0 50 50" fill="none" xmlns="http://www.w3.org/2000/svg">
<g opacity="0.77">
<path d="M47.41 29.895C47.7338 28.3322 47.9347 26.6688 47.9347 25.0055C47.9347 12.3353 37.6758 2.08752 25.0167 2.08752C23.3534 2.08752 21.7012 2.27729 20.1272 2.61219C18.0062 0.971197 15.3717 0 12.5028 0C5.60392 0 0 5.60392 0 12.5028C0 15.3717 0.971197 18.0062 2.60102 20.1161C2.27729 21.6789 2.07635 23.3422 2.07635 25.0055C2.07635 37.6758 12.3353 47.9236 24.9944 47.9236C26.6577 47.9236 28.3098 47.7338 29.8838 47.3989C32.0049 49.0287 34.6394 49.9999 37.4971 49.9999C44.396 49.9999 49.9999 44.396 49.9999 37.4971C50.0111 34.6394 49.0399 32.0049 47.41 29.895ZM25.6865 40.1093C18.3634 40.1093 12.2348 36.8497 12.2348 32.8533C12.2348 31.0671 13.2395 29.4373 15.528 29.4373C19.0109 29.4373 19.3346 34.4496 25.3628 34.4496C28.2317 34.4496 30.0848 33.177 30.0848 31.5137C30.0848 29.4262 28.2987 29.1024 25.3962 28.388C18.4193 26.6688 12.246 25.9321 12.246 18.6537C12.246 12.0451 18.7876 9.60034 24.425 9.60034C30.576 9.60034 36.7939 12.0451 36.7939 15.7847C36.7939 17.6713 35.5213 19.3346 33.4114 19.3346C30.2522 19.3346 30.1518 15.595 25.039 15.595C22.1701 15.595 20.3505 16.3764 20.3505 18.1067C20.3505 20.317 22.6724 20.5403 28.0642 21.7905C32.6858 22.8287 38.1893 24.7823 38.1893 30.4532C38.1893 37.0506 31.8151 40.1093 25.6865 40.1093Z" fill="#444444"/>
</g>
</svg>
