<svg width="90" height="90" viewBox="0 0 90 90" fill="none" xmlns="http://www.w3.org/2000/svg">
<path d="M10.5363 19.4849C10.3697 14.6931 14.1026 10.2747 19.1489 10.2747H70.8567C75.9031 10.2747 79.6359 14.6931 79.4693 19.4849C79.309 24.0875 79.5171 30.0501 81.0176 34.9115C82.523 39.7883 85.0613 42.8701 89.2188 43.2667V47.7575C85.0613 48.1541 82.523 51.2359 81.0176 56.1128C79.5171 60.9742 79.309 66.9367 79.4693 71.5393C79.6359 76.3311 75.9031 80.7489 70.8567 80.7489H19.1489C14.1026 80.7489 10.3697 76.3304 10.5363 71.5393C10.6966 66.9367 10.4885 60.9742 8.98735 56.1128C7.48266 51.2366 4.93735 48.1541 0.77977 47.7575V43.2667C4.93735 42.8708 7.48266 39.7883 8.98735 34.9115C10.4885 30.0501 10.6959 24.0875 10.5363 19.4849Z" fill="url(#paint0_linear_21_126)"/>
<g filter="url(#filter0_d_21_126)">
<path d="M47.1866 64.5021C55.3562 64.5021 60.2791 60.502 60.2791 53.9043C60.2791 48.9171 56.7665 45.3065 51.5508 44.7349V44.5271C55.3828 43.9038 58.3898 40.3452 58.3898 36.371C58.3898 30.7084 53.9192 27.0198 47.1068 27.0198H31.7787V64.5021H47.1866ZM37.7396 31.7733H45.6698C49.9808 31.7733 52.4289 33.6954 52.4289 37.1761C52.4289 40.8907 49.5816 42.9686 44.4191 42.9686H37.7396V31.7733ZM37.7396 59.7486V47.4103H45.6165C51.258 47.4103 54.1852 49.4883 54.1852 53.5405C54.1852 57.5926 51.338 59.7486 45.9624 59.7486H37.7396Z" fill="url(#paint1_linear_21_126)"/>
<path d="M47.1866 64.5021C55.3562 64.5021 60.2791 60.502 60.2791 53.9043C60.2791 48.9171 56.7665 45.3065 51.5508 44.7349V44.5271C55.3828 43.9038 58.3898 40.3452 58.3898 36.371C58.3898 30.7084 53.9192 27.0198 47.1068 27.0198H31.7787V64.5021H47.1866ZM37.7396 31.7733H45.6698C49.9808 31.7733 52.4289 33.6954 52.4289 37.1761C52.4289 40.8907 49.5816 42.9686 44.4191 42.9686H37.7396V31.7733ZM37.7396 59.7486V47.4103H45.6165C51.258 47.4103 54.1852 49.4883 54.1852 53.5405C54.1852 57.5926 51.338 59.7486 45.9624 59.7486H37.7396Z" stroke="white" stroke-width="0.24566"/>
</g>
<defs>
<filter id="filter0_d_21_126" x="27.7253" y="23.9491" width="36.6072" height="45.5891" filterUnits="userSpaceOnUse" color-interpolation-filters="sRGB">
<feFlood flood-opacity="0" result="BackgroundImageFix"/>
<feColorMatrix in="SourceAlpha" type="matrix" values="0 0 0 0 0 0 0 0 0 0 0 0 0 0 0 0 0 0 127 0" result="hardAlpha"/>
<feOffset dy="0.98264"/>
<feGaussianBlur stdDeviation="1.96528"/>
<feColorMatrix type="matrix" values="0 0 0 0 0 0 0 0 0 0 0 0 0 0 0 0 0 0 0.15 0"/>
<feBlend mode="normal" in2="BackgroundImageFix" result="effect1_dropShadow_21_126"/>
<feBlend mode="normal" in="SourceGraphic" in2="effect1_dropShadow_21_126" result="shape"/>
</filter>
<linearGradient id="paint0_linear_21_126" x1="13.9216" y1="12.1398" x2="91.201" y2="73.4851" gradientUnits="userSpaceOnUse">
<stop stop-color="#9013FE"/>
<stop offset="1" stop-color="#6610F2"/>
</linearGradient>
<linearGradient id="paint1_linear_21_126" x1="34.4754" y1="29.4864" x2="51.7484" y2="58.7001" gradientUnits="userSpaceOnUse">
<stop stop-color="white"/>
<stop offset="1" stop-color="#F1E5FC"/>
</linearGradient>
</defs>
</svg>
