<svg width="26" height="25" viewBox="0 0 26 25" fill="none" xmlns="http://www.w3.org/2000/svg">
<path d="M13.1733 11.3229C13.065 11.3124 12.935 11.3124 12.8158 11.3229C11.5724 11.2823 10.3942 10.7779 9.53075 9.91656C8.66732 9.05523 8.18646 7.90458 8.18999 6.70827C8.18999 4.15619 10.335 2.08327 13 2.08327C13.6309 2.07233 14.2579 2.18099 14.8452 2.40304C15.4325 2.6251 15.9685 2.9562 16.4227 3.37745C16.8769 3.7987 17.2404 4.30184 17.4923 4.85816C17.7443 5.41447 17.8799 6.01305 17.8912 6.61973C17.9026 7.22641 17.7896 7.8293 17.5587 8.39399C17.3277 8.95868 16.9834 9.4741 16.5453 9.91082C16.1072 10.3475 15.5839 10.697 15.0054 10.9393C14.4268 11.1816 13.8043 11.3119 13.1733 11.3229ZM7.75666 15.1666C5.13499 16.8541 5.13499 19.6041 7.75666 21.2812C10.7358 23.1979 15.6217 23.1979 18.6008 21.2812C21.2225 19.5937 21.2225 16.8437 18.6008 15.1666C15.6325 13.2604 10.7467 13.2604 7.75666 15.1666Z" stroke="#444444" stroke-linecap="round" stroke-linejoin="round"/>
</svg>
