<svg width="90" height="90" viewBox="0 0 90 90" fill="none" xmlns="http://www.w3.org/2000/svg">
<path d="M5.27168 62.0058C5.35793 62.2093 5.45543 62.3971 5.56043 62.5849C5.60918 62.6945 5.67668 62.8079 5.73668 62.9097C5.83418 63.1132 5.93918 63.3088 6.04044 63.5045L6.62919 64.5375C6.73794 64.7292 6.84294 64.9171 6.9667 65.1049C7.17295 65.4727 7.4167 65.8327 7.63045 66.2006C7.72795 66.3532 7.81795 66.5058 7.9267 66.6584C8.33921 67.3275 8.71421 67.8832 9.11547 68.4232C9.40047 68.8262 9.68547 69.2214 9.99297 69.6166C10.0942 69.7653 10.2067 69.914 10.3117 70.0627L11.1405 71.1114C11.2417 71.2327 11.343 71.3736 11.4517 71.4988C11.8192 71.9605 12.2092 72.4066 12.5992 72.8605C12.5992 72.8684 12.6105 72.8762 12.618 72.8879C13.1018 73.5219 13.623 74.0853 14.193 74.5862L14.208 74.6019C14.508 74.9227 14.808 75.2397 15.1268 75.5527L15.5055 75.9323C15.9218 76.3392 16.338 76.7423 16.7768 77.1336C16.7843 77.1336 16.788 77.1414 16.7955 77.1453L17.0093 77.341C17.3918 77.6892 17.7781 78.0336 18.1718 78.3545L18.6406 78.7653C18.9593 79.0314 19.2893 79.2818 19.6156 79.544L20.1256 79.951C20.4743 80.2249 20.8456 80.491 21.2018 80.7571C21.3331 80.8549 21.4643 80.9527 21.5993 81.0427L21.7081 81.1327L22.7619 81.8527L23.2119 82.1657C23.7631 82.5336 24.3106 82.8779 24.8581 83.2223C25.0156 83.3044 25.1731 83.3944 25.3194 83.4884C25.7244 83.731 26.1444 83.9775 26.5531 84.2005C26.7781 84.3336 27.0106 84.4471 27.2431 84.5684C27.5244 84.7327 27.8169 84.8931 28.1169 85.0575C28.1994 85.0849 28.2669 85.1123 28.3344 85.1514L28.3494 85.1357C28.4732 85.1944 28.5894 85.2571 28.7094 85.3197C29.1594 85.5545 29.6282 85.7775 30.1157 85.9966C30.2057 86.0357 30.3032 86.0749 30.4007 86.1297C30.9407 86.3762 31.4807 86.611 32.0394 86.8379C32.1669 86.8771 32.3019 86.9436 32.4332 86.9944C32.9395 87.194 33.4607 87.3975 33.9782 87.5892L34.1657 87.6597C34.7395 87.8631 35.3057 88.0588 35.8907 88.2427C36.0257 88.2818 36.1645 88.3327 36.307 88.3718C36.9032 88.5597 37.4808 88.7827 38.0845 88.9001C76.6086 96.1901 87.8025 64.8506 87.8025 64.8506C78.3974 77.5679 61.706 80.9214 45.8996 77.1884C45.3146 77.0475 44.7296 76.8518 44.1371 76.6718C43.3008 76.4249 42.4716 76.1521 41.6508 75.854L42.007 75.9675L41.7745 75.8736C41.2645 75.6936 40.7733 75.494 40.2745 75.2945C40.1525 75.2404 40.0286 75.1908 39.9033 75.1458L39.862 75.134C39.3108 74.9032 38.7745 74.6684 38.242 74.4218C38.1258 74.3827 38.0283 74.3279 37.912 74.281C37.2813 73.9942 36.6561 73.6941 36.037 73.381L36.5545 73.6197C36.4195 73.5574 36.2868 73.4895 36.157 73.4162C35.8045 73.244 35.452 73.0484 35.107 72.8645C34.8442 72.7345 34.5853 72.5962 34.3307 72.4497L34.4057 72.4888C33.982 72.254 33.5582 71.9997 33.1307 71.761C33.0032 71.6671 32.857 71.5888 32.7107 71.5027C32.0753 71.1173 31.4476 70.7181 30.8282 70.3053L31.0644 70.454C30.9057 70.3517 30.7506 70.2434 30.5994 70.1292L30.6219 70.1449C30.2189 69.8866 29.8237 69.6151 29.4369 69.331C29.3094 69.2449 29.1932 69.151 29.0619 69.0571C28.6579 68.7693 28.2603 68.4718 27.8694 68.1649L27.9594 68.2314C27.8019 68.0984 27.6332 67.9732 27.4644 67.844C27.1344 67.574 26.8006 67.3158 26.4706 67.034L26.0281 66.6662C25.5565 66.2747 25.0939 65.8715 24.6406 65.4571L24.6369 65.4532L23.3356 64.2206L22.9606 63.8527C22.6531 63.5279 22.3381 63.2188 22.0231 62.8979L21.6593 62.5066C21.2711 62.1054 20.8922 61.6944 20.5231 61.274L20.5006 61.2466L20.4368 61.1919C20.0398 60.7368 19.6485 60.2764 19.2631 59.8106C19.1618 59.6893 19.0681 59.5601 18.9631 59.431L18.1118 58.3549C17.7281 57.852 17.353 57.3419 16.9868 56.8249L16.8368 56.6058C8.0692 44.178 4.89667 27.0271 11.913 12.9558L5.71793 21.1302C-2.2509 33.0219 -1.26464 48.4862 4.82917 61.1136C4.96793 61.4227 5.12168 61.7123 5.27168 62.0058Z" fill="#1266A9"/>
<path d="M32.1107 44.8717L32.0695 44.8107L32.0357 44.7649L32.1107 44.8717Z" fill="black"/>
<path d="M36.3032 50.0087L36.6407 50.3609C37.0682 50.7913 37.507 51.21 37.9532 51.6287L38.0095 51.6796C38.4595 52.0943 38.9657 52.5287 39.487 52.9513L39.5657 53.0139C39.6932 53.1039 39.802 53.2096 39.9257 53.2996C40.4507 53.7222 40.9795 54.1252 41.5308 54.5283L41.587 54.5635C41.8195 54.7396 42.067 54.9 42.3295 55.0722C42.4345 55.1426 42.5545 55.2365 42.667 55.3069C43.0645 55.573 43.4545 55.8196 43.8558 56.0739C43.9195 56.1013 43.9758 56.1365 44.0358 56.1639C44.3733 56.3791 44.7408 56.5865 45.0933 56.7743C45.217 56.8526 45.337 56.9113 45.4645 56.9856C45.7158 57.1148 45.9633 57.2517 46.2033 57.3848L46.3233 57.4396C46.8296 57.6978 47.3471 57.9404 47.8533 58.1791C47.9808 58.23 48.0896 58.273 48.1983 58.3278C48.6146 58.5156 49.0383 58.6956 49.4546 58.86C49.6421 58.9265 49.8183 59.0048 49.9946 59.0635C50.3771 59.2122 50.7783 59.3491 51.1571 59.4861L51.6821 59.6622C52.2296 59.8382 52.7846 60.0691 53.3659 60.163C83.1149 65.2735 90 41.4939 90 41.4939C83.8012 50.7561 71.8048 55.17 59.0209 51.7226C58.3828 51.5547 57.7499 51.3654 57.1234 51.1552L57.3372 51.2178C57.1572 51.167 56.9997 51.1083 56.8272 51.0535C56.4372 50.9126 56.0359 50.7757 55.6571 50.6309L55.1171 50.4196C54.6971 50.2435 54.2696 50.0791 53.8609 49.8913C53.7334 49.8326 53.6171 49.7935 53.5196 49.7348C52.9946 49.4883 52.4659 49.2457 51.9521 48.9874L51.1796 48.5687L50.7333 48.3339C50.3883 48.1461 50.0696 47.9504 49.7396 47.7509C49.6554 47.7096 49.574 47.6626 49.4958 47.61L49.5071 47.6139C49.1096 47.3557 48.6971 47.1052 48.3146 46.843C48.1871 46.7687 48.0708 46.6787 47.9508 46.6004L47.1708 46.0722C46.6308 45.6809 46.1021 45.2622 45.5658 44.8552C45.4458 44.7417 45.3295 44.6478 45.2133 44.5461C39.592 39.9561 35.1594 33.6835 33.0557 26.5813C30.8394 19.1974 31.3269 10.9174 35.1557 4.19873L30.4494 11.117C24.6706 19.7296 24.9968 31.2418 29.4969 40.3513C30.3181 42.0339 31.1507 43.4544 32.0694 44.8083C32.9244 46.0839 33.8694 47.5787 35.0094 48.6039C35.4144 49.0852 35.8495 49.543 36.3032 50.0087Z" fill="#1266A9"/>
<path d="M9.13421 68.447L9.11921 68.4235L9.09296 68.3883L9.13421 68.447ZM24.7269 65.5356L24.7644 65.563L24.7719 65.5748L24.7269 65.5356Z" fill="black"/>
<path d="M51.2471 3.62739C47.8383 8.81999 47.5121 15.2687 49.8596 20.9935C52.3534 27.0743 57.4497 31.8482 63.3897 34.11C63.6335 34.2078 63.8697 34.29 64.121 34.3839L64.451 34.4895C64.796 34.603 65.1447 34.7361 65.501 34.8182C81.9299 38.1091 86.3775 26.0609 87.5737 24.2882C83.6624 30.1187 77.1036 31.5195 69.056 29.4887C68.3563 29.3106 67.6675 29.0885 66.9935 28.8235L67.1173 28.8665C66.2786 28.5636 65.4572 28.2109 64.6572 27.81L64.7998 27.8765C63.2622 27.0939 61.9422 26.2487 60.716 25.2782C53.5234 19.6043 49.0758 8.80043 53.7709 0L51.2471 3.62739Z" fill="#1266A9"/>
</svg>
