<svg width="90" height="90" viewBox="0 0 90 90" fill="none" xmlns="http://www.w3.org/2000/svg">
<g clip-path="url(#clip0_21_102)">
<path d="M42.056 0.0703394C41.8626 0.0879159 41.2474 0.149433 40.6938 0.193374C27.9245 1.34463 15.9638 8.23458 8.38835 18.8244C4.17001 24.7125 1.47203 31.3915 0.452597 38.466C0.0922809 40.9355 0.0483398 41.6649 0.0483398 45.0132C0.0483398 48.3615 0.0922809 49.0909 0.452597 51.5604C2.89572 68.4426 14.9092 82.6267 31.2025 87.8821C34.1202 88.8224 37.1961 89.464 40.6938 89.8506C42.056 90 47.9441 90 49.3062 89.8506C55.3437 89.1827 60.4585 87.6887 65.5029 85.1138C66.2762 84.7183 66.4256 84.6129 66.3202 84.525C66.2499 84.4723 62.9543 80.0518 58.9996 74.7086L51.8109 64.9976L42.803 51.6659C37.8464 44.3365 33.7687 38.343 33.7335 38.343C33.6984 38.3342 33.6632 44.2574 33.6456 51.4901C33.6193 64.1539 33.6105 64.6636 33.4523 64.9624C33.2238 65.3931 33.048 65.5688 32.6789 65.7622C32.3977 65.9028 32.1516 65.9291 30.8246 65.9291H29.3043L28.9 65.6743C28.6364 65.5073 28.443 65.2876 28.3112 65.0327L28.1267 64.6373L28.1442 47.0169L28.1706 29.3878L28.443 29.045C28.5836 28.8605 28.8824 28.6232 29.0934 28.509C29.4537 28.3332 29.5943 28.3156 31.1146 28.3156C32.9074 28.3156 33.2062 28.3859 33.672 28.8956C33.8038 29.0363 38.6813 36.3832 44.5167 45.2329C50.352 54.0826 58.3317 66.1664 62.2512 72.0985L69.3697 82.8816L69.73 82.6443C72.9201 80.5703 76.2948 77.6175 78.9664 74.5416C84.6524 68.0119 88.3171 60.0498 89.5474 51.5604C89.9077 49.0909 89.9517 48.3615 89.9517 45.0132C89.9517 41.6649 89.9077 40.9355 89.5474 38.466C87.1043 21.5839 75.0908 7.3997 58.7975 2.14436C55.9237 1.21281 52.8654 0.571267 49.438 0.184586C48.5944 0.096704 42.7854 3.3807e-05 42.056 0.0703394ZM60.4585 27.261C60.8803 27.472 61.223 27.8762 61.3461 28.298C61.4164 28.5265 61.4339 33.4128 61.4164 44.4244L61.39 60.2256L58.6041 55.9545L55.8095 51.6835V40.1973C55.8095 32.7712 55.8446 28.5968 55.8974 28.3947C56.038 27.9026 56.3456 27.5159 56.7674 27.2874C57.1277 27.1029 57.2596 27.0853 58.6393 27.0853C59.94 27.0853 60.1684 27.1029 60.4585 27.261Z" fill="black"/>
<path d="M68.9303 83.0749C68.6227 83.2683 68.526 83.4001 68.7984 83.2507C68.9918 83.1364 69.3082 82.8992 69.2554 82.8904C69.2291 82.8904 69.0797 82.9783 68.9303 83.0749ZM68.3239 83.4704C68.1657 83.5934 68.1657 83.6022 68.359 83.5056C68.4645 83.4528 68.5524 83.3913 68.5524 83.3737C68.5524 83.3034 68.5084 83.321 68.3239 83.4704ZM67.8845 83.734C67.7263 83.8571 67.7263 83.8659 67.9196 83.7692C68.0251 83.7165 68.113 83.655 68.113 83.6374C68.113 83.5671 68.069 83.5846 67.8845 83.734ZM67.4451 83.9977C67.2869 84.1207 67.2869 84.1295 67.4802 84.0328C67.5857 83.9801 67.6736 83.9186 67.6736 83.901C67.6736 83.8307 67.6296 83.8483 67.4451 83.9977ZM66.7772 84.3492C66.4432 84.525 66.4608 84.5953 66.7947 84.4283C66.9441 84.3492 67.0584 84.2701 67.0584 84.2526C67.0584 84.191 67.0496 84.1998 66.7772 84.3492Z" fill="black"/>
</g>
<defs>
<clipPath id="clip0_21_102">
<rect width="90" height="90" fill="white"/>
</clipPath>
</defs>
</svg>
