<svg width="34" height="23" viewBox="0 0 34 23" fill="none" xmlns="http://www.w3.org/2000/svg">
<path fill-rule="evenodd" clip-rule="evenodd" d="M0.10625 2.95665C0.320489 2.1167 0.847143 1.36674 1.59996 0.82959C2.35277 0.29244 3.28713 -5.79817e-05 4.25 8.62115e-09H29.75C30.7129 -5.79817e-05 31.6472 0.29244 32.4 0.82959C33.1529 1.36674 33.6795 2.1167 33.8937 2.95665L17 12.1955L0.10625 2.95665ZM0 5.12804V18.6355L12.3314 11.8703L0 5.12804ZM14.3671 12.9865L0.405875 20.6433C0.750819 21.2942 1.29524 21.8439 1.97579 22.2287C2.65633 22.6134 3.445 22.8173 4.25 22.8166H29.75C30.5549 22.8168 31.3432 22.6124 32.0234 22.2274C32.7036 21.8423 33.2475 21.2923 33.592 20.6414L19.6308 12.9846L17 14.4239L14.3671 12.9865ZM21.6686 11.8723L34 18.6355V5.12804L21.6686 11.8703V11.8723Z" fill="white"/>
</svg>
