<svg width="50" height="50" viewBox="0 0 50 50" fill="none" xmlns="http://www.w3.org/2000/svg">
<path d="M36.0798 0.160841C38.6164 0.276611 40.3699 0.649346 41.9927 1.28003C43.6161 1.91097 44.8457 2.71079 46.0676 3.93265C47.2892 5.15447 48.089 6.3838 48.7202 8.00753C49.3507 9.63049 49.7234 11.3837 49.8392 13.9203C49.9826 17.0661 50 18.1749 50 24.9999C50 31.8251 49.9826 32.934 49.8392 36.0798C49.7234 38.6163 49.3507 40.3695 48.72 41.993C48.0889 43.6163 47.2891 44.8457 46.0676 46.0672C44.8458 47.2891 43.6162 48.089 41.9924 48.7201C40.3692 49.3507 38.6161 49.7234 36.0798 49.8391C32.9348 49.9826 31.8262 50 25 50C18.1738 50 17.0652 49.9826 13.9203 49.8391C11.3839 49.7234 9.63064 49.3507 8.00713 48.7199C6.38368 48.089 5.15415 47.2891 3.93255 46.0673C2.71078 44.8456 1.91087 43.6161 1.27983 41.9925C0.649256 40.3695 0.276604 38.6163 0.160841 36.0798C0.017402 32.936 0 31.828 0 24.9999C0 18.1719 0.017402 17.064 0.160843 13.9201C0.276604 11.3837 0.649256 9.63049 1.27992 8.00729C1.91081 6.38396 2.7107 5.1545 3.93244 3.93276C5.15415 2.71091 6.38368 1.91104 8.00719 1.28003C9.62992 0.649368 11.3835 0.276612 13.9201 0.160841C17.0641 0.0174005 18.1719 0 25 0C31.8281 0 32.936 0.0174007 36.0798 0.160841ZM25 5.55556C18.2492 5.55556 17.2167 5.57177 14.1733 5.71062C12.242 5.79877 11.0823 6.04527 10.0197 6.45824C9.11245 6.81088 8.53595 7.18592 7.86092 7.86102C7.18575 8.53619 6.81069 9.11268 6.45825 10.0195C6.04521 11.0826 5.79877 12.242 5.71062 14.1734C5.57177 17.2166 5.55556 18.2492 5.55556 24.9999C5.55556 31.7508 5.57177 32.7834 5.71062 35.8266C5.79877 37.758 6.04521 38.9174 6.45813 39.9802C6.81071 40.8873 7.18583 41.4639 7.86103 42.1391C8.53595 42.8141 9.11245 43.1891 10.0194 43.5416C11.0827 43.9548 12.2421 44.2012 14.1734 44.2893C17.2179 44.4282 18.2511 44.4444 25 44.4444C31.7489 44.4444 32.7821 44.4282 35.8267 44.2893C37.7579 44.2012 38.9171 43.9548 39.9802 43.5417C40.8876 43.1891 41.464 42.8141 42.1391 42.139C42.8141 41.464 43.1892 40.8874 43.5417 39.9805C43.9548 38.9174 44.2012 37.7579 44.2894 35.8266C44.4282 32.7814 44.4444 31.7479 44.4444 24.9999C44.4444 18.2521 44.4282 17.2186 44.2894 14.1734C44.2012 12.242 43.9548 11.0826 43.5419 10.02C43.1892 9.11258 42.8141 8.53603 42.1391 7.86092C41.4641 7.18593 40.8876 6.81089 39.9802 6.45826C38.9175 6.04525 37.758 5.79877 35.8266 5.71062C32.7833 5.57177 31.7508 5.55556 25 5.55556ZM25 37.963C17.8408 37.963 12.037 32.1592 12.037 25C12.037 17.8408 17.8408 12.037 25 12.037C32.1592 12.037 37.963 17.8408 37.963 25C37.963 32.1592 32.1592 37.963 25 37.963ZM25 32.4074C29.091 32.4074 32.4074 29.091 32.4074 25C32.4074 20.909 29.091 17.5926 25 17.5926C20.909 17.5926 17.5926 20.909 17.5926 25C17.5926 29.091 20.909 32.4074 25 32.4074ZM37.963 14.8148C36.4288 14.8148 35.1852 13.5712 35.1852 12.037C35.1852 10.5029 36.4288 9.25926 37.963 9.25926C39.4971 9.25926 40.7407 10.5029 40.7407 12.037C40.7407 13.5712 39.4971 14.8148 37.963 14.8148Z" fill="#444444"/>
</svg>
