<svg width="51" height="50" viewBox="0 0 51 50" fill="none" xmlns="http://www.w3.org/2000/svg">
<path d="M50.3097 25.1549C50.3097 11.2584 39.0419 0 25.1549 0C11.2584 0 0 11.2584 0 25.1549C0 37.7071 9.19567 48.115 21.2244 50V32.4278H14.8367V25.1564H21.2244V19.6114C21.2244 13.3085 24.9741 9.82769 30.722 9.82769C33.4748 9.82769 36.3566 10.3182 36.3566 10.3182V16.5079H33.1793C30.0601 16.5079 29.0853 18.4495 29.0853 20.4383V25.1549H36.0611L34.9401 32.4262H29.0853V49.9984C41.1046 48.1134 50.3097 37.7056 50.3097 25.1533V25.1549Z" fill="#444444"/>
</svg>
