<svg width="34" height="26" viewBox="0 0 34 26" fill="none" xmlns="http://www.w3.org/2000/svg">
<path fill-rule="evenodd" clip-rule="evenodd" d="M0.10625 3.25643C0.320489 2.33132 0.847143 1.50531 1.59996 0.913703C2.35277 0.322091 3.28713 -6.38604e-05 4.25 9.49525e-09H29.75C30.7129 -6.38604e-05 31.6472 0.322091 32.4 0.913703C33.1529 1.50531 33.6795 2.33132 33.8937 3.25643L17 13.432L0.10625 3.25643ZM0 5.64797V20.5249L12.3314 13.0739L0 5.64797ZM14.3671 14.3032L0.405875 22.7364C0.750819 23.4532 1.29524 24.0587 1.97579 24.4824C2.65633 24.9062 3.445 25.1308 4.25 25.13H29.75C30.5549 25.1302 31.3432 24.9051 32.0234 24.481C32.7036 24.0569 33.2475 23.4512 33.592 22.7343L19.6308 14.3011L17 15.8864L14.3671 14.3032ZM21.6686 13.076L34 20.5249V5.64797L21.6686 13.0739V13.076Z" fill="white"/>
</svg>
